<svg width="180" height="180" xmlns="http://www.w3.org/2000/svg"><path fill="#860117" fill-rule="evenodd" d="M18.438 45.091a4.381 4.381 0 0 0 4.381 4.382h19.534a4.381 4.381 0 1 0 0-8.763H22.819a4.381 4.381 0 0 0-4.38 4.381Z"/><path fill="#c20023" fill-rule="evenodd" d="M54.767 42.17a7.302 7.302 0 0 0 7.302 7.303h24.645a7.302 7.302 0 0 0 0-14.605H62.069a7.302 7.302 0 0 0-7.302 7.302ZM33.955 62.617a7.302 7.302 0 0 0 7.303 7.302h24.645a7.302 7.302 0 1 0 0-14.605H41.258a7.302 7.302 0 0 0-7.303 7.303ZM30.487 118.479a7.302 7.302 0 0 0 7.302 7.302h30.304a7.302 7.302 0 0 0 0-14.605H37.79a7.302 7.302 0 0 0-7.302 7.303ZM39.797 139.29a7.302 7.302 0 0 0 7.302 7.302h41.258a7.302 7.302 0 1 0 0-14.604H47.099a7.302 7.302 0 0 0-7.302 7.302Z"/><path fill="#860117" fill-rule="evenodd" d="M0 64.625a4.381 4.381 0 0 0 4.381 4.381h19.534a4.381 4.381 0 1 0 0-8.763H4.38A4.381 4.381 0 0 0 0 64.625ZM29.026 80.142a4.381 4.381 0 0 0 4.382 4.381H52.94a4.381 4.381 0 1 0 0-8.762H33.408a4.381 4.381 0 0 0-4.382 4.381ZM3.834 100.588a4.381 4.381 0 0 0 4.381 4.382h19.533a4.381 4.381 0 0 0 0-8.763H8.215a4.381 4.381 0 0 0-4.381 4.381ZM2.19 114.097a4.381 4.381 0 0 0 4.382 4.382h12.961a4.381 4.381 0 1 0 0-8.763H6.572a4.381 4.381 0 0 0-4.381 4.381Z"/><path fill="#c20023" fill-rule="evenodd" d="M0 78.864a4.381 4.381 0 0 0 4.381 4.381h12.962a4.381 4.381 0 0 0 0-8.762H4.38A4.381 4.381 0 0 0 0 78.864Z"/><path fill="#860117" fill-rule="evenodd" d="M22.09 140.385a4.381 4.381 0 1 0 8.762 0 4.381 4.381 0 0 0-8.763 0ZM39.797 100.588a4.381 4.381 0 0 0 4.381 4.382h9.676a4.381 4.381 0 0 0 0-8.763h-9.676a4.381 4.381 0 0 0-4.38 4.381Z"/><path fill="#c20023" fill-rule="evenodd" d="M128.023 34.737a7.302 7.302 0 0 0-10.326 0L67.415 85.02a7.302 7.302 0 0 0 0 10.327l49.734 49.734a7.302 7.302 0 0 0 10.327 0l50.281-50.282a7.302 7.302 0 0 0 0-10.327Z"/><path fill="#f02c48" fill-rule="evenodd" d="M122.313 147.219a7.28 7.28 0 0 1-5.164-2.139L67.415 95.346a7.301 7.301 0 0 1 0-10.326l50.281-50.282a7.279 7.279 0 0 1 5.305-2.134v114.582a7.329 7.329 0 0 1-.688.033Z"/><path fill="#860117" fill-rule="evenodd" d="M122.313 147.219a7.28 7.28 0 0 1-5.165-2.139L67.414 95.346A7.278 7.278 0 0 1 65.281 90h114.606a7.278 7.278 0 0 1-2.13 4.799l-50.28 50.281a7.28 7.28 0 0 1-5.165 2.139Z"/><path fill="#c20023" fill-rule="evenodd" d="M127.995 56.855a7.302 7.302 0 0 0-10.327 0L89.687 84.837a7.302 7.302 0 0 0 0 10.326l27.635 27.636a7.302 7.302 0 0 0 10.327 0l27.982-27.982a7.302 7.302 0 0 0 0-10.327Z"/><path fill="#f02c48" fill-rule="evenodd" d="M122.86 124.928V54.717c1.86.007 3.716.72 5.134 2.138l27.637 27.635a7.301 7.301 0 0 1 0 10.326L127.65 122.8a7.273 7.273 0 0 1-4.79 2.129Z"/><path fill="#860117" fill-rule="evenodd" d="M127.814 67.077a7.302 7.302 0 0 0-10.327 0L99.91 84.654a7.302 7.302 0 0 0 0 10.327l17.577 17.577a7.302 7.302 0 0 0 10.327 0l17.577-17.577a7.302 7.302 0 0 0 0-10.327Z"/></svg>